<?xml version="1.0" encoding="UTF-8"?>
<svg id="Layer_2" data-name="Layer 2" xmlns="http://www.w3.org/2000/svg" viewBox="0 0 133.68 119.7">
  <defs>
    <style>
      .cls-1 {
        fill: #fff;
      }
    </style>
  </defs>
  <g id="Layer_3" data-name="Layer 3">
    <path class="cls-1" d="M0,60.65c3.15-1.45,6.27-2.95,9.45-4.32,1.33-.57,1.99-1.29,2.16-2.83,.87-7.85,3.53-15.12,6.74-22.34,1.04-2.34,2.68-3.82,3.98-5.71C29.25,15.43,38.48,8.21,49.87,3.95c36.49-13.65,75.31,9.5,80.63,48.06,1.76,12.71-.42,24.78-6.61,36.04-1.04,1.9-.7,2.53,1.28,3.08,2.9,.81,5.72,1.91,8.5,3.42-2.92-.32-5.86-.54-8.76-.99-2.58-.4-4.34,.01-6.16,2.39-10.45,13.68-24.4,21.77-41.49,23.45-32.91,3.23-59.71-19.73-64.87-48.75-.33-1.88-.81-3.79-.78-5.67,.03-2.13-1.06-2.59-2.79-2.75-2.92-.28-5.82-.64-8.73-.96l-.1-.62Zm120.68,14.1c1.35-.76,1.3-1.73,1.5-2.49,2.17-8.53,1.87-17.05-.24-25.55-5.91-23.75-29.03-41.55-55.13-39.18-16.15,1.46-28.77,8.99-38.51,21.78-1.43,1.88-1.03,2.55,.97,3.4,4.87,2.08,9.68,4.31,14.44,6.65,1.57,.77,2.92,.8,4.44,.12,6.18-2.77,12.38-5.51,18.57-8.25,3.88-1.72,7.75-3.43,12.12-5.36-.52,.97-.71,1.36-.93,1.73-4.03,6.81-8.05,13.63-12.11,20.41-.68,1.13-.99,1.83,.57,2.55,7.5,3.45,14.96,6.98,22.41,10.53,1.44,.69,1.81,.32,1.78-1.18-.07-3.58-.13-7.25-1.43-10.55-1.19-3-.53-4.91,1.84-6.66,.42-.31,.74-.74,1.11-1.1,3.4-3.3,6.81-6.59,10.35-10.02,1.13,3.71,2.24,7.36,3.55,11.67,1.53-4.06,2.8-7.46,4.28-11.38,1.07,2.73,3.24,4.6,2.76,6.93-.95,4.62-2.71,9.03-6.16,14.05l-7.3-8.49c1.86,7.21,2.84,14.28,1.45,21.55-.3,1.59,.87,1.21,1.62,.68,3.42-2.43,7.16-4.28,10.97-5.98,1.21-.54,.82-.93,.26-1.69-1.4-1.89-3.01-.62-4.51-.36-1.46,.26-2.95,1.26-4.28-.78,4.65-1.89,9.17-3.84,13.79-5.54,1.88-.69,3.95,1.64,3.44,3.59-1.58,6.11-1.85,12.31-1.59,18.93Zm-84.26,22.4c-2.35-9.66-4.54-18.58-6.69-27.5-1.18-4.91-1.16-4.92-6.31-5.67q-4.93-.72-4.1,4.18c6.54,38.75,51.03,56.96,82.86,33.89,3.69-2.68,6.94-5.83,10.15-9.76-16.5-1.77-32.43-3.48-48.35-5.2l-.11-.52c8.06-4.73,16.11-9.47,24.84-14.59-10.17-1.29-19.54-2.14-28.77-3.81-4.49-.81-6.41,.84-8.44,4.36-4.68,8.12-9.78,16.01-15.09,24.61Zm54.88-17.54c6.7,2.28,12.75,4.35,18.8,6.41q6,2.04,8.53-3.89c.22-.51,.87-1.08,.28-1.59-.3-.25-1-.15-1.48-.04-2.9,.65-5.65,1.67-8.06,3.45-.99,.73-1.76,.78-2.28-.73-.22-.63-.58-1.2-1-1.71-1.21-1.46-.71-2.35,.75-3.03,.63-.3,1.19-.76,1.84-.95,2.57-.75,2.81-2.57,2.56-4.31-7.04,.41-13.11,3.41-19.92,6.4ZM22.14,42.5c-1.6,2.86-2.48,5.82-2.77,9.04q4.57-1.63,3.53-6.04c-.24-1-.5-2-.76-3Z"/>
  </g>
</svg>